<?xml version="1.0" standalone="no"?>
<!DOCTYPE svg PUBLIC "-//W3C//DTD SVG 20010904//EN"
 "http://www.w3.org/TR/2001/REC-SVG-20010904/DTD/svg10.dtd">
<svg version="1.0" xmlns="http://www.w3.org/2000/svg"
 width="697.000000pt" height="358.000000pt" viewBox="0 0 697.000000 358.000000"
 preserveAspectRatio="xMidYMid meet">
<metadata>
Created by potrace 1.16, written by Peter Selinger 2001-2019
</metadata>
<g transform="translate(0.000000,358.000000) scale(0.100000,-0.100000)"
fill="#000000" stroke="none">
<path d="M3301 2862 c-54 -20 -105 -71 -133 -131 -19 -40 -19 -49 -7 -105 7
-33 19 -67 26 -75 10 -9 13 -29 9 -65 -2 -28 -2 -45 1 -38 2 6 8 10 13 7 4 -2
5 16 2 42 -3 31 -2 44 6 39 6 -3 4 8 -5 24 -8 18 -13 47 -11 67 3 28 1 37 -14
41 -21 5 -21 3 -6 39 6 15 11 31 10 35 -1 4 15 20 36 35 20 15 45 35 55 44 21
19 87 41 87 28 0 -5 5 -9 11 -9 5 0 7 5 4 10 -4 7 3 8 21 4 16 -4 34 -7 41 -7
7 0 13 -4 13 -9 0 -10 40 -51 40 -40 1 11 40 -41 40 -53 0 -5 -9 4 -20 20 -11
17 -20 26 -20 21 0 -5 -10 0 -23 12 -13 12 -27 19 -32 15 -4 -5 -5 -3 -1 4 3
6 2 14 -4 18 -5 3 -10 0 -10 -8 0 -8 -11 -17 -24 -19 -16 -3 -23 -1 -19 7 3 9
-5 12 -24 10 -36 -3 -83 -22 -83 -33 0 -5 -10 -14 -22 -21 -23 -11 -23 -11 2
-5 l25 5 -25 -20 c-17 -14 -20 -21 -10 -21 10 0 4 -11 -17 -29 -17 -16 -29
-32 -26 -35 9 -9 43 -7 43 2 0 5 15 17 34 27 30 16 32 20 19 30 -18 13 -1 31
17 20 6 -4 9 -1 8 7 -2 8 9 14 30 16 17 2 32 8 32 13 0 6 7 6 19 -1 11 -5 30
-10 43 -10 49 -1 71 -36 83 -133 4 -32 12 -57 19 -57 7 0 7 -3 -1 -8 -9 -6
-10 -17 -4 -39 5 -17 6 -35 3 -39 -4 -4 -2 -4 5 0 8 4 7 -2 -2 -21 -8 -15 -15
-36 -15 -45 0 -9 -4 -19 -10 -23 -5 -3 -7 -12 -3 -20 3 -8 0 -15 -7 -15 -7 0
-10 -7 -6 -15 3 -8 1 -15 -4 -15 -6 0 -12 0 -15 0 -2 0 -16 -12 -31 -27 -14
-14 -29 -22 -33 -17 -3 5 -21 9 -39 9 -19 -1 -36 3 -39 8 -2 4 -11 3 -18 -3
-10 -8 -19 -4 -39 17 -14 15 -27 31 -27 35 -1 5 -2 13 -3 18 0 6 -4 9 -7 8 -3
-2 -14 4 -25 12 -10 9 -7 0 9 -21 15 -20 27 -41 27 -46 0 -12 102 -83 118 -83
6 0 13 -6 16 -12 3 -7 4 -4 1 7 -5 22 7 47 21 44 18 -6 84 12 84 22 0 6 4 8 9
4 5 -3 8 -16 5 -30 -2 -13 0 -26 6 -30 5 -3 7 0 4 9 -5 12 0 12 31 -2 33 -15
36 -20 31 -47 -15 -76 -92 -125 -194 -125 -70 0 -111 16 -136 54 -21 32 -21
64 1 88 25 28 7 23 -124 -37 -73 -33 -136 -55 -157 -55 -26 0 -43 -8 -68 -32
-18 -18 -29 -30 -24 -25 21 15 30 5 10 -11 -43 -36 -133 -298 -134 -390 0 -15
-12 -45 -25 -67 -23 -37 -37 -79 -15 -45 8 13 10 13 10 -2 0 -10 -8 -22 -18
-27 -15 -8 -18 -20 -17 -58 1 -26 -2 -60 -7 -75 -7 -21 -7 -33 3 -44 14 -17
16 -25 26 -89 3 -22 12 -49 19 -60 8 -11 14 -27 14 -36 0 -18 99 -211 100
-193 0 6 -18 45 -40 87 -22 41 -40 87 -40 101 0 31 43 66 81 66 31 0 65 -39
56 -62 -4 -8 -6 -6 -6 5 -1 9 -5 17 -10 17 -6 0 -7 -10 -4 -22 2 -13 5 -33 4
-45 -1 -25 14 -39 24 -23 4 6 11 8 16 5 5 -4 9 -1 9 4 0 6 -4 11 -10 11 -6 0
-9 36 -7 89 1 49 -1 87 -5 84 -5 -2 -9 13 -9 34 -2 56 1 75 17 97 8 11 14 32
14 47 0 15 7 29 16 33 24 9 25 8 19 -16 -18 -76 -32 -341 -23 -424 5 -49 11
-90 13 -92 2 -2 10 19 18 47 12 41 13 67 4 136 -6 53 -7 89 -1 95 6 6 8 -5 6
-29 -2 -22 0 -46 5 -55 6 -11 9 -3 9 27 0 23 1 107 3 187 2 136 -3 198 -16
210 -3 3 -4 -12 -1 -32 2 -25 0 -38 -8 -38 -12 0 -10 33 8 92 10 34 8 41 -21
84 -17 26 -31 56 -31 67 0 11 -3 18 -6 14 -9 -9 16 -118 33 -144 9 -13 13 -27
9 -31 -18 -17 -51 87 -62 191 -6 65 -15 80 -30 55 -4 -6 -2 -14 4 -16 16 -5
15 -29 0 -36 -10 -5 -10 -7 0 -12 6 -3 9 -10 6 -16 -4 -6 0 -14 7 -19 11 -7
11 -9 1 -9 -7 0 -20 7 -28 15 -18 18 -34 19 -34 3 0 -6 3 -8 6 -5 4 4 16 -11
28 -33 12 -21 31 -51 44 -65 13 -15 21 -33 18 -41 -3 -8 -2 -13 2 -10 5 3 13
-8 19 -25 8 -21 8 -27 0 -22 -6 4 -8 0 -4 -10 3 -9 1 -19 -5 -23 -6 -4 -8 -3
-5 3 4 6 0 14 -9 17 -8 3 -12 2 -9 -3 3 -5 0 -13 -6 -17 -8 -4 -9 -3 -5 4 4 7
3 12 -2 12 -6 0 -12 -7 -16 -15 -5 -14 6 -20 29 -15 5 1 2 -7 -8 -18 -9 -10
-14 -22 -10 -27 5 -4 1 -6 -7 -3 -12 4 -15 -3 -15 -31 0 -29 -4 -35 -17 -33
-13 2 -16 -2 -12 -13 4 -9 12 -14 18 -12 7 3 11 -10 12 -33 l1 -37 -34 10 -34
11 28 12 28 13 -30 -6 c-39 -7 -67 -22 -45 -23 8 0 0 -7 -19 -16 -19 -8 -31
-17 -28 -21 4 -3 13 0 22 7 8 7 22 10 30 6 9 -3 13 -2 10 4 -3 6 3 10 13 10
15 0 19 -5 15 -20 -4 -16 -2 -19 11 -14 9 3 13 10 10 15 -3 5 -3 9 0 9 3 0 12
-14 21 -30 16 -31 9 -38 -23 -21 -13 7 -28 2 -58 -19 -40 -27 -41 -27 -53 -8
-7 11 -9 28 -6 39 4 12 2 19 -6 19 -8 0 -6 7 6 20 17 19 17 19 -2 16 -22 -5
-30 33 -10 47 8 5 5 7 -8 5 -12 -2 -21 4 -23 15 -3 16 0 18 20 12 18 -5 20 -4
8 4 -13 10 -13 11 0 12 10 0 8 3 -5 9 -18 8 -17 9 7 9 15 1 39 -4 55 -11 36
-15 90 -16 90 -1 0 8 -8 9 -23 3 -13 -5 -25 -6 -28 -1 -3 4 -29 13 -59 21 -51
12 -54 14 -48 39 11 49 26 65 49 52 12 -6 19 -17 16 -25 -6 -16 29 -31 46 -21
5 3 10 1 10 -5 0 -6 5 -8 10 -5 15 9 0 27 -17 21 -9 -4 -17 1 -20 14 -3 10
-14 22 -24 25 -11 4 -16 11 -13 17 4 6 2 8 -3 5 -6 -4 -16 -1 -22 7 -13 16 -4
49 12 39 6 -3 7 -1 3 5 -4 7 -2 12 4 12 9 0 20 -19 31 -55 11 -37 84 -57 84
-23 0 9 4 20 9 25 5 4 6 3 2 -4 -4 -7 -3 -13 3 -13 5 0 9 9 8 19 0 11 -6 17
-14 14 -20 -8 -15 8 9 28 11 11 16 19 10 19 -6 0 -14 -5 -18 -11 -4 -8 -9 -7
-15 2 -4 7 -11 10 -16 6 -4 -5 -3 -11 2 -15 14 -10 17 -52 4 -52 -8 0 -7 -5 1
-15 10 -12 10 -15 -1 -15 -28 1 -66 50 -39 50 6 0 10 -5 10 -11 0 -5 5 -7 11
-3 8 4 5 10 -7 17 -11 5 -25 17 -32 26 -7 9 -18 16 -25 16 -8 0 -11 13 -9 35
4 63 6 70 18 70 15 0 25 -25 18 -47 -5 -14 -4 -15 4 -4 8 11 12 10 21 -7 10
-19 9 -21 -6 -15 -10 3 -15 2 -10 -2 4 -5 24 -10 45 -11 30 -2 33 -1 17 7 -11
6 -31 33 -45 62 -14 29 -27 54 -30 57 -3 3 -2 29 3 59 7 39 12 50 19 40 7 -10
8 -8 3 9 -3 12 -2 22 3 22 5 0 10 6 9 13 -1 37 4 57 13 52 6 -4 10 -3 9 2 -4
16 13 62 27 74 11 9 14 6 14 -17 0 -22 -3 -26 -10 -14 -13 19 -12 -44 1 -80 8
-22 8 -21 5 9 -4 46 31 145 58 163 16 11 38 10 31 -2 -4 -6 10 1 31 15 55 37
67 28 49 -37 -5 -18 -3 -28 4 -28 6 0 11 9 11 19 0 11 5 23 10 26 6 4 8 10 5
14 -8 15 53 74 70 67 9 -3 13 -2 10 4 -3 6 -1 10 4 10 15 0 14 -23 -1 -38 -9
-9 -9 -15 1 -24 8 -7 11 -8 8 -3 -3 6 -2 17 4 25 7 13 9 12 9 -2 0 -22 48 -78
66 -78 9 0 12 -5 8 -12 -4 -7 -3 -8 5 -4 6 4 8 12 5 18 -4 5 4 3 17 -5 38 -25
133 -17 199 16 41 21 56 24 63 14 5 -8 6 -4 2 9 -9 32 31 94 60 94 13 0 27 -4
30 -10 3 -5 15 -10 26 -10 10 0 19 -5 19 -11 0 -5 5 -7 12 -3 6 4 17 -1 25
-12 8 -10 15 -18 16 -16 4 6 43 -12 73 -35 17 -13 36 -23 42 -23 7 0 12 -5 12
-11 0 -5 -4 -7 -10 -4 -5 3 -10 1 -10 -4 0 -15 13 -14 30 2 8 6 11 8 7 3 -3
-5 3 -24 14 -43 12 -19 19 -36 16 -39 -3 -3 4 -15 15 -26 14 -14 17 -23 9 -31
-18 -18 -13 -31 6 -16 15 12 16 12 10 -3 -3 -10 -3 -18 2 -18 8 0 26 -66 23
-83 -1 -4 3 -17 8 -28 18 -33 22 -149 6 -143 -8 3 -16 1 -19 -3 -3 -5 6 -9 20
-9 15 1 28 -5 31 -13 3 -8 0 -11 -7 -7 -7 5 -11 -1 -11 -16 0 -18 -2 -20 -10
-8 -6 9 -10 10 -10 3 0 -21 18 -24 30 -6 10 16 11 15 6 -7 -3 -15 1 -31 11
-42 10 -11 12 -18 5 -18 -7 0 -12 3 -12 8 0 4 -9 13 -20 20 -17 10 -20 10 -20
-3 0 -8 7 -15 15 -15 8 0 15 -7 15 -15 0 -8 5 -15 10 -15 6 0 10 -7 10 -15 0
-8 5 -15 11 -15 5 0 8 -4 4 -9 -3 -5 -1 -12 5 -16 11 -7 8 -40 -5 -52 -4 -5
-5 -2 -1 4 4 8 2 11 -6 8 -9 -4 -13 -17 -10 -40 3 -23 0 -35 -8 -35 -8 0 -10
-9 -6 -26 6 -21 4 -25 -8 -21 -28 11 -18 -20 13 -42 16 -12 28 -27 27 -34 -3
-21 -17 -38 -27 -32 -5 4 -9 -2 -10 -12 0 -10 -3 -13 -6 -5 -2 6 -11 12 -19
12 -9 0 -12 5 -8 12 4 6 3 8 -4 4 -6 -3 -17 0 -24 7 -7 8 -21 12 -31 9 -16 -4
-18 -1 -12 19 11 36 34 69 48 69 7 -1 5 -6 -6 -14 -16 -13 -16 -14 -1 -20 9
-4 19 -4 22 -1 3 3 -1 5 -9 5 -10 1 -9 5 5 15 18 13 17 14 -7 20 -21 6 -24 11
-20 36 2 17 -1 36 -7 44 -9 11 -7 17 8 26 19 12 19 49 0 49 -5 0 -6 -9 -3 -20
5 -14 2 -20 -10 -20 -9 0 -13 5 -10 10 4 6 1 17 -5 25 -16 20 7 43 44 43 15 0
32 4 37 9 7 7 -7 7 -38 2 -66 -11 -95 -11 -89 0 4 5 0 12 -6 14 -9 4 -8 6 3 6
9 1 16 8 16 16 0 8 -4 12 -9 9 -4 -3 -8 0 -8 5 0 6 4 11 10 11 5 0 7 7 4 15
-4 8 -16 15 -28 15 -13 0 -26 10 -33 25 -6 14 -7 25 -2 25 6 0 9 6 7 13 -1 6
3 21 9 32 15 29 27 84 13 65 -8 -11 -9 -3 -5 30 3 34 2 39 -4 20 -5 -14 -9
-46 -10 -72 -1 -25 -5 -48 -11 -50 -5 -1 -11 -18 -13 -36 -2 -18 -11 -38 -19
-45 -21 -17 -41 -78 -29 -90 5 -5 6 -19 2 -31 -4 -11 -7 -91 -7 -178 1 -86 -2
-154 -6 -152 -4 2 -3 -9 2 -25 7 -25 6 -29 -8 -25 -10 3 -6 -1 7 -9 14 -8 19
-17 13 -21 -6 -3 -13 0 -15 6 -4 9 -6 9 -7 -2 -1 -8 -3 -22 -4 -30 -2 -8 -1
-23 3 -32 5 -15 8 -13 18 7 6 14 7 23 3 20 -5 -3 -12 0 -15 6 -5 7 0 10 11 7
11 -2 18 -11 16 -21 -2 -9 1 -17 5 -17 7 0 10 -72 5 -140 -2 -23 -6 -25 -56
-25 -33 0 -52 4 -49 10 2 6 -3 1 -12 -10 -14 -17 -17 -18 -25 -5 -8 12 -10 10
-10 -8 0 -15 -4 -21 -11 -16 -8 5 -9 2 -2 -11 12 -20 5 -58 -8 -49 -5 3 -9 1
-9 -5 0 -5 -8 -12 -17 -15 -10 -3 -6 -4 10 -2 22 3 25 1 16 -10 -9 -11 -8 -14
0 -14 7 0 9 -5 6 -10 -3 -6 4 -14 16 -18 l22 -9 -21 -21 c-18 -18 -29 -20 -79
-15 -32 3 -67 11 -78 18 -28 17 -65 25 -65 14 0 -5 14 -12 30 -16 17 -3 30 -9
30 -14 0 -4 10 -10 23 -12 12 -3 -3 -3 -33 -1 -41 2 -50 0 -37 -7 26 -15 125
-13 145 3 11 9 14 10 8 0 -14 -23 100 -3 116 21 9 14 22 -118 14 -151 -7 -31
-12 -66 -19 -138 -3 -28 -10 -61 -17 -73 -6 -13 -9 -25 -6 -29 3 -3 6 1 6 8 0
7 3 11 6 8 7 -8 -24 -68 -34 -68 -5 0 -14 6 -21 13 -9 8 -12 8 -7 0 3 -6 3
-13 -1 -16 -5 -2 -3 -2 4 -1 6 2 11 -6 10 -17 -1 -20 -17 -27 -17 -7 0 6 -3 8
-6 5 -4 -4 -1 -13 6 -22 8 -10 9 -15 1 -15 -6 0 -11 -14 -11 -32 0 -28 -2 -30
-12 -15 -11 14 -13 8 -15 -38 -3 -77 11 -69 42 25 15 45 39 95 53 112 35 41
51 146 58 373 3 94 10 174 15 179 12 13 12 29 -1 21 -5 -3 -10 -2 -10 4 0 5 6
11 13 14 6 2 9 7 6 11 -11 12 -39 -6 -45 -30 -6 -22 -60 -71 -69 -63 -2 2 0
29 3 59 6 48 10 55 31 58 13 2 28 -2 33 -10 7 -10 10 -10 19 5 5 9 19 17 31
17 17 0 19 -4 13 -27 l-7 -28 23 30 c13 17 50 62 84 100 33 39 78 93 100 120
21 28 47 58 57 68 10 10 18 24 18 32 0 8 9 23 20 33 21 20 54 97 69 165 10 41
-9 101 -24 77 -4 -7 -2 -17 4 -23 6 -6 11 -20 11 -31 0 -28 -32 -126 -41 -126
-4 0 1 25 12 57 19 57 25 103 12 89 -5 -4 -8 -11 -9 -14 -1 -9 -27 -96 -30
-101 -2 -1 -7 0 -13 3 -6 4 -5 23 4 53 10 34 11 50 3 60 -8 11 -7 12 6 7 10
-4 16 -1 16 9 0 8 4 17 10 19 9 3 -9 70 -23 84 -4 4 -7 12 -7 17 0 14 40 -23
40 -37 1 -19 36 -87 42 -81 10 11 -26 90 -62 133 -25 32 -35 54 -36 85 -5 100
-36 244 -70 326 -20 47 -37 101 -38 120 0 19 -8 37 -16 42 -8 4 -28 14 -45 22
-16 8 -66 34 -110 59 -44 25 -115 58 -159 74 -94 35 -104 50 -87 134 7 30 13
63 14 72 1 9 5 14 9 12 11 -7 28 40 28 76 0 16 -4 31 -9 34 -5 4 -3 30 6 64
26 99 15 143 -40 161 -19 7 -39 22 -45 35 -19 43 -133 57 -211 28z m179 -27
c0 -3 -2 -5 -5 -5 -3 0 -5 2 -5 5 0 3 2 5 5 5 3 0 5 -2 5 -5z m-140 -20 c0 -3
-2 -5 -5 -5 -3 0 -5 2 -5 5 0 3 2 5 5 5 3 0 5 -2 5 -5z m30 -20 c0 -8 -2 -15
-4 -15 -2 0 -6 7 -10 15 -3 8 -1 15 4 15 6 0 10 -7 10 -15z m-50 -7 c0 6 5 12
12 12 7 0 -4 -16 -22 -35 -26 -27 -32 -38 -22 -44 11 -7 10 -10 -3 -14 -9 -4
-13 -3 -10 2 3 5 0 13 -6 17 -9 5 -7 11 6 20 10 8 16 17 12 20 -4 4 -2 13 5
21 9 11 13 11 19 1 7 -10 9 -10 9 0z m133 5 c-7 -2 -19 -2 -25 0 -7 3 -2 5 12
5 14 0 19 -2 13 -5z m128 -20 c13 -15 12 -15 -11 -3 -34 17 -36 20 -18 20 9 0
22 -7 29 -17z m2 -52 c3 -14 1 -18 -9 -14 -8 3 -14 9 -14 14 0 4 -8 6 -17 2
-15 -5 -14 -3 2 10 23 18 31 15 38 -12z m-393 14 c0 -3 -2 -5 -5 -5 -3 0 -5 2
-5 5 0 3 2 5 5 5 3 0 5 -2 5 -5z m365 -35 c3 -5 4 -10 1 -10 -3 0 -8 5 -11 10
-3 6 -4 10 -1 10 3 0 8 -4 11 -10z m21 -25 c-10 -7 -15 -18 -11 -24 3 -6 1
-11 -4 -11 -6 0 -11 6 -11 13 0 16 20 37 35 37 5 0 2 -7 -9 -15z m-389 -22
c-4 -3 -10 -3 -14 0 -3 4 0 7 7 7 7 0 10 -3 7 -7z m383 -27 c0 -3 -5 -8 -12
-12 -7 -4 -8 -3 -4 4 7 12 16 16 16 8z m19 -103 c1 -18 -18 -16 -25 2 -4 8 -3
23 1 33 7 16 8 15 15 -3 5 -11 9 -26 9 -32z m-379 22 c0 -3 -2 -5 -5 -5 -3 0
-5 2 -5 5 0 3 2 5 5 5 3 0 5 -2 5 -5z m330 -150 c0 -3 -2 -5 -5 -5 -3 0 -5 2
-5 5 0 3 2 5 5 5 3 0 5 -2 5 -5z m-280 -10 c0 -3 -2 -5 -5 -5 -3 0 -5 2 -5 5
0 3 2 5 5 5 3 0 5 -2 5 -5z m240 -70 c0 -3 -2 -5 -5 -5 -3 0 -5 2 -5 5 0 3 2
5 5 5 3 0 5 -2 5 -5z m-153 -22 c-4 -3 -7 0 -7 7 0 7 3 10 7 7 3 -4 3 -10 0
-14z m53 -13 c0 -5 -4 -10 -10 -10 -5 0 -10 5 -10 10 0 6 5 10 10 10 6 0 10
-4 10 -10z m-165 -81 c-5 -24 8 -53 39 -89 l21 -24 -25 16 c-28 17 -56 79 -47
103 9 22 16 18 12 -6z m-294 -106 c-8 -15 -10 -15 -11 -2 0 17 10 32 18 25 2
-3 -1 -13 -7 -23z m939 12 c0 -3 -2 -5 -5 -5 -3 0 -5 2 -5 5 0 3 2 5 5 5 3 0
5 -2 5 -5z m75 -36 c11 -17 -1 -21 -15 -4 -8 9 -8 15 -2 15 6 0 14 -5 17 -11z
m-1145 -314 c0 -3 -2 -5 -5 -5 -3 0 -5 2 -5 5 0 3 2 5 5 5 3 0 5 -2 5 -5z
m101 -38 c-10 -9 -11 -8 -5 6 3 10 9 15 12 12 3 -3 0 -11 -7 -18z m16 -24 c-4
-3 -7 0 -7 7 0 7 3 10 7 7 3 -4 3 -10 0 -14z m61 -28 c-3 -3 -9 2 -12 12 -6
14 -5 15 5 6 7 -7 10 -15 7 -18z m892 -115 c-18 -34 -12 -70 14 -81 19 -9 27
-24 37 -73 17 -80 16 -87 -16 -181 -43 -124 -77 -187 -92 -171 -10 10 -10 472
-1 507 6 22 12 25 38 21 25 -4 28 -7 20 -22z m-860 -85 c0 -3 -2 -5 -5 -5 -3
0 -5 2 -5 5 0 3 2 5 5 5 3 0 5 -2 5 -5z m-90 -9 c0 -3 -4 -8 -10 -11 -5 -3
-10 -1 -10 4 0 6 5 11 10 11 6 0 10 -2 10 -4z m80 -21 c0 -3 -2 -5 -5 -5 -3 0
-5 2 -5 5 0 3 2 5 5 5 3 0 5 -2 5 -5z m-3 -57 c-3 -8 -6 -5 -6 6 -1 11 2 17 5
13 3 -3 4 -12 1 -19z m-10 -55 c-3 -10 -5 -4 -5 12 0 17 2 24 5 18 2 -7 2 -21
0 -30z m973 32 c0 -3 -2 -5 -5 -5 -3 0 -5 2 -5 5 0 3 2 5 5 5 3 0 5 -2 5 -5z
m80 -90 c0 -3 -2 -5 -5 -5 -3 0 -5 2 -5 5 0 3 2 5 5 5 3 0 5 -2 5 -5z m-38
-115 c28 -29 33 -58 9 -52 -7 1 -10 -2 -7 -7 4 -5 -1 -14 -10 -19 -9 -5 -16
-13 -16 -18 0 -16 -90 -114 -99 -108 -5 3 -6 -3 -2 -12 4 -10 2 -15 -3 -11 -5
3 -16 -8 -23 -24 -21 -48 -31 -33 -31 45 0 71 2 75 31 100 17 14 28 26 24 26
-3 0 3 13 14 28 11 16 18 37 17 48 -5 28 2 34 35 34 21 0 40 -10 61 -30z
m-1014 -65 c-3 -3 -9 2 -12 12 -6 14 -5 15 5 6 7 -7 10 -15 7 -18z m-8 -19 c0
-3 -4 -8 -10 -11 -5 -3 -10 -1 -10 4 0 6 5 11 10 11 6 0 10 -2 10 -4z m790
-41 c0 -3 -2 -5 -5 -5 -3 0 -5 2 -5 5 0 3 2 5 5 5 3 0 5 -2 5 -5z m-63 -329
c-21 -16 -22 -27 -2 -20 8 4 15 3 15 -1 0 -14 -30 -37 -30 -23 0 8 -4 7 -11
-4 -5 -10 -15 -18 -21 -18 -6 0 -4 8 5 18 10 10 17 22 17 27 0 13 33 46 39 39
3 -3 -2 -11 -12 -18z m13 -311 c0 -3 -2 -5 -5 -5 -3 0 -5 2 -5 5 0 3 2 5 5 5
3 0 5 -2 5 -5z M3293 2773 c4 -3 10 -3 14 0 3 4 0 7 -7 7 -7 0 -10 -3 -7 -7z
M3990 1125 c0 -3 2 -5 5 -5 3 0 5 2 5 5 0 3 -2 5 -5 5 -3 0 -5 -2 -5 -5z
M3910 1075 c0 -3 2 -5 5 -5 3 0 5 2 5 5 0 3 -2 5 -5 5 -3 0 -5 -2 -5 -5z
M3940 1075 c0 -3 2 -5 5 -5 3 0 5 2 5 5 0 3 -2 5 -5 5 -3 0 -5 -2 -5 -5z
M3960 1070 c0 -7 3 -10 7 -7 3 4 3 10 0 14 -4 3 -7 0 -7 -7z M3900 1055 c0 -3
2 -5 5 -5 3 0 5 2 5 5 0 3 -2 5 -5 5 -3 0 -5 -2 -5 -5z M3940 1045 c0 -3 2 -5
5 -5 3 0 5 2 5 5 0 3 -2 5 -5 5 -3 0 -5 -2 -5 -5z M3964 1038 c-4 -7 -3 -8 4
-4 12 7 16 16 8 16 -3 0 -8 -5 -12 -12z M3870 1035 c0 -3 2 -5 5 -5 3 0 5 2 5
5 0 3 -2 5 -5 5 -3 0 -5 -2 -5 -5z M3900 1025 c0 -3 2 -5 5 -5 3 0 5 2 5 5 0
3 -2 5 -5 5 -3 0 -5 -2 -5 -5z M3940 1025 c0 -3 2 -5 5 -5 3 0 5 2 5 5 0 3 -2
5 -5 5 -3 0 -5 -2 -5 -5z M3850 925 c0 -3 2 -5 5 -5 3 0 5 2 5 5 0 3 -2 5 -5
5 -3 0 -5 -2 -5 -5z M3850 905 c0 -3 2 -5 5 -5 3 0 5 2 5 5 0 3 -2 5 -5 5 -3
0 -5 -2 -5 -5z M3498 2873 c7 -3 16 -2 19 1 4 3 -2 6 -13 5 -11 0 -14 -3 -6
-6z M3350 2835 c0 -3 2 -5 5 -5 3 0 5 2 5 5 0 3 -2 5 -5 5 -3 0 -5 -2 -5 -5z
M3550 2827 c0 -10 8 -17 18 -17 9 0 13 4 7 8 -5 4 -13 11 -17 16 -5 5 -8 2 -8
-7z M3340 2755 c0 -3 2 -5 5 -5 3 0 5 2 5 5 0 3 -2 5 -5 5 -3 0 -5 -2 -5 -5z
M3197 2705 c-10 -14 -14 -25 -9 -25 10 0 42 33 42 43 0 14 -16 5 -33 -18z
M3353 2703 c4 -3 10 -3 14 0 3 4 0 7 -7 7 -7 0 -10 -3 -7 -7z M3330 2695 c0
-3 2 -5 5 -5 3 0 5 2 5 5 0 3 -2 5 -5 5 -3 0 -5 -2 -5 -5z M3315 2653 l-17
-28 23 22 c12 12 20 25 17 28 -3 3 -13 -7 -23 -22z M3460 2675 c0 -3 2 -5 5
-5 3 0 5 2 5 5 0 3 -2 5 -5 5 -3 0 -5 -2 -5 -5z M3440 2665 c0 -3 2 -5 5 -5 3
0 5 2 5 5 0 3 -2 5 -5 5 -3 0 -5 -2 -5 -5z M3432 2623 c-27 -10 -40 -19 -34
-25 6 -6 30 -2 66 10 30 10 53 22 49 25 -9 10 -31 7 -81 -10z M3235 2610 c-5
-8 -4 -11 2 -7 16 10 74 -4 67 -15 -4 -6 3 -5 15 1 12 7 27 9 34 5 9 -5 9 -4
1 5 -16 18 -110 26 -119 11z M3500 2595 c0 -3 2 -5 5 -5 3 0 5 2 5 5 0 3 -2 5
-5 5 -3 0 -5 -2 -5 -5z M3378 2573 c6 -11 9 -23 7 -25 -3 -3 6 -17 20 -32 31
-34 32 -33 -9 -34 -19 -1 -40 -3 -47 -4 -8 -2 -13 3 -11 11 2 9 -3 11 -13 7
-9 -3 -20 -6 -23 -6 -4 0 0 -5 8 -10 12 -8 10 -10 -10 -10 -25 -1 -25 -1 -2
-10 13 -6 32 -6 48 0 34 13 37 13 30 -5 -3 -8 -1 -15 3 -15 5 0 12 7 15 16 3
8 11 12 16 9 6 -4 16 -2 23 3 7 6 28 12 47 15 l35 4 -38 1 c-31 2 -41 8 -57
35 -24 38 -26 54 -5 37 12 -10 15 -10 15 4 0 9 -6 16 -14 16 -8 0 -22 3 -31 7
-15 5 -16 3 -7 -14z M3256 2572 c-12 -11 -5 -24 9 -18 22 8 51 -4 34 -15 -8
-4 -11 -10 -8 -13 8 -9 69 26 69 40 0 19 -19 18 -26 -1 -4 -10 -11 -12 -18 -7
-15 12 -54 21 -60 14z m94 -7 c0 -3 -2 -5 -5 -5 -3 0 -5 2 -5 5 0 3 2 5 5 5 3
0 5 -2 5 -5z M3440 2571 c0 -5 14 -9 30 -9 17 1 30 5 30 10 0 4 -13 8 -30 8
-16 0 -30 -4 -30 -9z M3230 2565 c0 -3 2 -5 5 -5 3 0 5 2 5 5 0 3 -2 5 -5 5
-3 0 -5 -2 -5 -5z M3510 2555 c0 -3 2 -5 5 -5 3 0 5 2 5 5 0 3 -2 5 -5 5 -3 0
-5 -2 -5 -5z M3172 2520 c0 -19 2 -27 5 -17 2 9 2 25 0 35 -3 9 -5 1 -5 -18z
M3440 2545 c0 -3 2 -5 5 -5 3 0 5 2 5 5 0 3 -2 5 -5 5 -3 0 -5 -2 -5 -5z
M3240 2536 c0 -2 9 -6 20 -9 11 -3 18 -1 14 4 -5 9 -34 13 -34 5z M3346 2525
c4 -8 8 -15 10 -15 2 0 4 7 4 15 0 8 -4 15 -10 15 -5 0 -7 -7 -4 -15z M3510
2515 c0 -3 2 -5 5 -5 3 0 5 2 5 5 0 3 -2 5 -5 5 -3 0 -5 -2 -5 -5z M3220 2505
c0 -3 2 -5 5 -5 3 0 5 2 5 5 0 3 -2 5 -5 5 -3 0 -5 -2 -5 -5z M3520 2495 c0
-3 2 -5 5 -5 3 0 5 2 5 5 0 3 -2 5 -5 5 -3 0 -5 -2 -5 -5z M3235 2480 c3 -5 8
-10 11 -10 3 0 2 5 -1 10 -3 6 -8 10 -11 10 -3 0 -2 -4 1 -10z M3260 2475 c0
-3 2 -5 5 -5 3 0 5 2 5 5 0 3 -2 5 -5 5 -3 0 -5 -2 -5 -5z M3400 2450 c0 -6 7
-10 15 -10 8 0 15 2 15 4 0 2 -7 6 -15 10 -8 3 -15 1 -15 -4z M3298 2444 c-2
-5 -3 -15 -2 -21 1 -7 2 -20 3 -29 1 -14 2 -14 17 0 11 12 37 16 92 17 67 1
72 2 37 9 -40 8 -99 5 -116 -6 -5 -3 -13 5 -17 17 -5 12 -11 18 -14 13z m12
-29 c0 -3 -2 -5 -5 -5 -3 0 -5 2 -5 5 0 3 2 5 5 5 3 0 5 -2 5 -5z M3464 2438
c-4 -7 -3 -8 4 -4 7 4 12 9 12 12 0 8 -9 4 -16 -8z M3210 2435 c0 -3 2 -5 5
-5 3 0 5 2 5 5 0 3 -2 5 -5 5 -3 0 -5 -2 -5 -5z M3270 2425 c0 -3 2 -5 5 -5 3
0 5 2 5 5 0 3 -2 5 -5 5 -3 0 -5 -2 -5 -5z M3366 2375 c-4 -11 2 -15 27 -15
22 0 28 3 18 9 -11 7 -11 9 0 14 8 3 2 6 -12 6 -15 1 -29 -6 -33 -14z M3380
2332 c0 -5 7 -13 16 -16 10 -4 14 -1 12 6 -5 15 -28 23 -28 10z M3440 2325 c0
-3 2 -5 5 -5 3 0 5 2 5 5 0 3 -2 5 -5 5 -3 0 -5 -2 -5 -5z M3280 2290 c0 -5 5
-10 11 -10 5 0 7 5 4 10 -3 6 -8 10 -11 10 -2 0 -4 -4 -4 -10z M3420 2265 c0
-3 2 -5 5 -5 3 0 5 2 5 5 0 3 -2 5 -5 5 -3 0 -5 -2 -5 -5z M3310 2245 c0 -3 2
-5 5 -5 3 0 5 2 5 5 0 3 -2 5 -5 5 -3 0 -5 -2 -5 -5z M3510 2235 c0 -3 2 -5 5
-5 3 0 5 2 5 5 0 3 -2 5 -5 5 -3 0 -5 -2 -5 -5z M3450 2225 c0 -3 2 -5 5 -5 3
0 5 2 5 5 0 3 -2 5 -5 5 -3 0 -5 -2 -5 -5z M3398 2213 c7 -3 16 -2 19 1 4 3
-2 6 -13 5 -11 0 -14 -3 -6 -6z M3430 2215 c0 -3 2 -5 5 -5 3 0 5 2 5 5 0 3
-2 5 -5 5 -3 0 -5 -2 -5 -5z M3420 2195 c0 -3 2 -5 5 -5 3 0 5 2 5 5 0 3 -2 5
-5 5 -3 0 -5 -2 -5 -5z M3390 2175 c0 -3 2 -5 5 -5 3 0 5 2 5 5 0 3 -2 5 -5 5
-3 0 -5 -2 -5 -5z M3688 2173 c10 -4 10 -8 0 -21 -12 -15 -11 -16 4 -3 19 14
15 32 -5 30 -8 0 -8 -2 1 -6z M3714 2148 c-4 -7 -3 -8 4 -4 7 4 12 9 12 12 0
8 -9 4 -16 -8z M3740 2150 c0 -7 3 -10 7 -7 3 4 3 10 0 14 -4 3 -7 0 -7 -7z
M3590 2135 c0 -3 2 -5 5 -5 3 0 5 2 5 5 0 3 -2 5 -5 5 -3 0 -5 -2 -5 -5z
M3760 2125 c0 -3 2 -5 5 -5 3 0 5 2 5 5 0 3 -2 5 -5 5 -3 0 -5 -2 -5 -5z
M3210 2116 c0 -2 8 -10 18 -17 15 -13 16 -12 3 4 -13 16 -21 21 -21 13z M3140
2090 c0 -5 5 -10 10 -10 6 0 10 5 10 10 0 6 -4 10 -10 10 -5 0 -10 -4 -10 -10z
M3190 2090 c0 -7 3 -10 7 -7 3 4 3 10 0 14 -4 3 -7 0 -7 -7z M3018 2083 c7 -3
16 -2 19 1 4 3 -2 6 -13 5 -11 0 -14 -3 -6 -6z M3210 2086 c0 -2 8 -10 18 -17
15 -13 16 -12 3 4 -13 16 -21 21 -21 13z M3540 2085 c0 -3 2 -5 5 -5 3 0 5 2
5 5 0 3 -2 5 -5 5 -3 0 -5 -2 -5 -5z M3590 2085 c0 -3 2 -5 5 -5 3 0 5 2 5 5
0 3 -2 5 -5 5 -3 0 -5 -2 -5 -5z M3840 2085 c0 -3 2 -5 5 -5 3 0 5 2 5 5 0 3
-2 5 -5 5 -3 0 -5 -2 -5 -5z M3250 2075 c0 -3 2 -5 5 -5 3 0 5 2 5 5 0 3 -2 5
-5 5 -3 0 -5 -2 -5 -5z M3020 2065 c0 -3 2 -5 5 -5 3 0 5 2 5 5 0 3 -2 5 -5 5
-3 0 -5 -2 -5 -5z M3052 2050 c0 -14 2 -19 5 -12 2 6 2 18 0 25 -3 6 -5 1 -5
-13z M3270 2065 c0 -3 2 -5 5 -5 3 0 5 2 5 5 0 3 -2 5 -5 5 -3 0 -5 -2 -5 -5z
M3508 2063 c6 -2 18 -2 25 0 6 3 1 5 -13 5 -14 0 -19 -2 -12 -5z M3590 2065
c0 -3 2 -5 5 -5 3 0 5 2 5 5 0 3 -2 5 -5 5 -3 0 -5 -2 -5 -5z M3860 2065 c0
-3 2 -5 5 -5 3 0 5 2 5 5 0 3 -2 5 -5 5 -3 0 -5 -2 -5 -5z M3080 2033 c0 -10
-3 -43 -6 -73 -4 -30 -4 -52 0 -49 4 4 9 22 11 40 3 19 7 46 10 61 4 14 1 29
-4 33 -6 3 -11 -2 -11 -12z M3390 2035 c0 -3 2 -5 5 -5 3 0 5 2 5 5 0 3 -2 5
-5 5 -3 0 -5 -2 -5 -5z M3921 2014 c0 -11 3 -14 6 -6 3 7 2 16 -1 19 -3 4 -6
-2 -5 -13z M2950 2015 c0 -3 2 -5 5 -5 3 0 5 2 5 5 0 3 -2 5 -5 5 -3 0 -5 -2
-5 -5z M3360 2009 c0 -5 5 -7 10 -4 6 3 10 8 10 11 0 2 -4 4 -10 4 -5 0 -10
-5 -10 -11z M3031 1938 c0 -39 -3 -73 -5 -75 -11 -11 -32 12 -34 39 -2 18 -5
34 -9 37 -3 4 -4 -9 -1 -26 2 -18 2 -31 0 -28 -3 3 -11 0 -19 -6 -15 -13 -18
-55 -4 -63 5 -3 7 -15 4 -26 -3 -11 0 -20 6 -20 6 0 8 -7 4 -17 -4 -9 -2 -14
3 -11 5 3 15 0 22 -8 10 -11 10 -14 0 -14 -9 0 -9 -3 2 -10 8 -5 19 -5 25 0 6
5 21 7 33 3 14 -3 22 -1 22 7 0 9 4 9 17 -1 9 -8 18 -13 20 -11 1 1 9 2 16 2
8 0 7 -4 -3 -10 -24 -16 -2 -11 32 6 18 9 27 11 23 4 -6 -9 -1 -10 16 -4 34
11 72 13 84 3 6 -4 17 -4 24 0 7 5 22 6 33 3 15 -4 17 -7 6 -13 -10 -7 -11 -9
0 -9 7 0 11 -4 7 -9 -3 -5 -1 -12 4 -16 6 -3 8 3 6 15 -3 14 1 20 13 20 15 0
15 2 2 11 -11 8 -7 9 15 3 17 -4 51 -7 78 -6 45 1 47 0 43 -24 -3 -14 -1 -22
5 -19 5 4 7 11 4 16 -4 5 -1 9 5 9 6 0 8 4 5 10 -3 5 0 7 8 4 8 -3 28 8 45 25
18 16 32 25 32 20 0 -16 -5 -24 -12 -22 -4 2 -4 -5 -1 -14 5 -13 2 -15 -18
-10 -21 5 -22 5 -7 -7 10 -7 14 -17 10 -21 -4 -5 -2 -5 5 -2 6 4 14 1 17 -5 3
-7 3 -3 1 8 -3 13 1 29 10 38 18 18 29 21 20 6 -7 -12 82 -53 96 -44 6 3 17 0
25 -7 9 -7 26 -14 37 -15 12 -2 16 0 9 3 -10 4 -10 9 3 23 19 21 27 100 11
100 -6 0 -5 4 2 9 19 12 -15 44 -40 38 -20 -6 -37 18 -33 45 4 22 -11 33 -21
17 -5 -8 -3 -9 6 -4 9 6 11 4 6 -4 -6 -9 -13 -8 -29 6 -12 10 -17 12 -12 4 6
-11 4 -13 -8 -8 -9 3 -19 1 -23 -5 -4 -7 -3 -8 4 -4 7 4 12 2 12 -3 0 -6 -7
-11 -16 -11 -11 0 -14 -5 -10 -16 6 -15 4 -15 -16 -1 -13 8 -22 22 -20 30 3
21 -9 26 -33 16 -18 -9 -18 -9 3 -5 28 5 28 -5 1 -22 -12 -8 -18 -9 -15 -4 3
6 -1 13 -10 16 -21 8 -26 8 -20 -2 6 -9 -67 -7 -83 2 -6 4 -21 1 -33 -5 -21
-11 -22 -11 -10 4 11 13 10 15 -7 10 -12 -3 -18 -10 -14 -17 4 -6 -1 -5 -11 3
-12 10 -13 16 -6 21 8 5 6 9 -5 14 -28 10 -55 7 -55 -8 0 -7 -9 -16 -20 -19
-11 -3 -20 0 -20 6 0 7 -5 5 -10 -3 -8 -13 -12 -12 -24 6 -11 15 -23 19 -48
16 -18 -2 -43 -4 -55 -5 -16 -2 -19 -5 -11 -14 6 -7 9 -13 7 -14 -35 -6 -58
-6 -54 1 3 4 -2 10 -10 14 -8 3 -15 1 -15 -4 0 -6 -6 -10 -14 -10 -11 0 -13
14 -10 64 2 36 0 67 -5 70 -5 3 -9 -26 -10 -66z m333 -84 c-1 -16 -2 -50 -3
-75 l-1 -47 -37 0 c-46 0 -73 22 -73 59 0 38 26 62 62 57 24 -4 28 -1 28 20 0
14 5 22 13 19 6 -2 11 -17 11 -33z m-168 -1 c-3 -16 -8 -48 -11 -74 -6 -43 -8
-45 -41 -46 -34 -1 -64 24 -64 55 0 24 49 64 70 57 16 -5 20 -2 20 14 0 12 6
21 16 21 12 0 14 -7 10 -27z m44 17 c0 -5 -7 -10 -16 -10 -8 0 -12 5 -9 10 3
6 10 10 16 10 5 0 9 -4 9 -10z m-263 -7 c-4 -3 -10 -3 -14 0 -3 4 0 7 7 7 7 0
10 -3 7 -7z m643 -13 c0 -5 -2 -10 -4 -10 -3 0 -8 5 -11 10 -3 6 -1 10 4 10 6
0 11 -4 11 -10z m124 -33 c9 -29 14 -35 26 -27 25 16 39 12 33 -10 -5 -19 -11
-20 -52 -14 -25 4 -49 8 -53 11 -21 11 3 88 24 81 7 -3 16 -21 22 -41z m-754
27 c0 -8 -19 -13 -24 -6 -3 5 1 9 9 9 8 0 15 -2 15 -3z m80 -24 c0 -90 -34
-120 -64 -56 -23 49 -8 85 34 84 26 -1 30 -5 30 -28z m166 8 c-3 -13 -6 -40
-6 -60 0 -28 -4 -38 -16 -38 -13 0 -15 7 -10 31 3 17 6 44 6 60 0 20 5 29 16
29 12 0 15 -6 10 -22z m264 -8 c0 -69 -10 -87 -48 -88 -42 -2 -72 21 -72 55 0
36 33 62 79 61 38 0 41 -2 41 -28z m78 18 c7 -7 12 -16 12 -20 0 -13 -28 -9
-33 5 -2 6 -8 9 -12 5 -4 -4 6 -18 21 -32 24 -20 27 -28 18 -43 -15 -24 -62
-30 -70 -8 -8 21 3 32 18 17 16 -16 28 -15 28 2 0 7 -9 16 -20 19 -26 7 -36
33 -20 52 15 18 42 19 58 3z m83 -27 c28 -23 20 -36 -16 -27 -16 4 -25 13 -25
26 0 25 11 25 41 1z m127 -66 c3 -3 0 -5 -7 -5 -7 0 -10 -4 -6 -9 5 -8 -19
-21 -51 -27 -6 -1 -21 4 -35 12 -22 12 -20 13 26 9 l50 -4 -55 10 c-53 11 -80
24 -80 39 0 7 149 -16 158 -25z m32 -4 c-7 -13 -7 -20 1 -23 6 -2 1 -15 -11
-31 -17 -22 -25 -25 -36 -16 -11 9 -8 18 19 50 36 43 43 48 27 20z M3286 1814
c-10 -9 -15 -23 -12 -31 3 -8 6 -17 6 -19 0 -11 39 -2 51 12 26 31 -17 67 -45
38z m24 -19 c0 -3 -2 -5 -5 -5 -3 0 -5 2 -5 5 0 3 2 5 5 5 3 0 5 -2 5 -5z
M3122 1808 c-21 -21 -15 -50 11 -46 16 2 23 11 25 31 4 29 -14 37 -36 15z m18
-23 c0 -3 -2 -5 -5 -5 -3 0 -5 2 -5 5 0 3 2 5 5 5 3 0 5 -2 5 -5z M3016 1812
c-8 -13 5 -52 15 -46 12 7 12 54 0 54 -6 0 -12 -4 -15 -8z M3412 1803 c-13
-24 -4 -43 18 -43 21 0 40 28 33 48 -7 18 -41 15 -51 -5z m18 -18 c0 -3 -2 -5
-5 -5 -3 0 -5 2 -5 5 0 3 2 5 5 5 3 0 5 -2 5 -5z M3663 1753 c9 -2 23 -2 30 0
6 3 -1 5 -18 5 -16 0 -22 -2 -12 -5z M3723 1743 c9 -2 23 -2 30 0 6 3 -1 5
-18 5 -16 0 -22 -2 -12 -5z M3787 1700 c-15 -14 -16 -20 -5 -26 7 -4 10 -4 6
1 -4 4 0 14 10 21 9 7 15 14 12 17 -3 2 -13 -4 -23 -13z M2982 1980 c0 -14 2
-19 5 -12 2 6 2 18 0 25 -3 6 -5 1 -5 -13z M3432 1984 c-7 -8 -8 -14 -3 -14
10 0 25 19 20 25 -2 1 -10 -3 -17 -11z M3992 1995 c2 -5 14 -31 27 -58 22 -47
50 -161 51 -205 0 -15 4 -21 11 -16 9 5 10 -1 5 -20 -4 -17 -2 -34 5 -42 7 -8
9 -27 5 -48 -5 -24 -2 -37 9 -46 8 -7 15 -18 15 -25 0 -6 9 -20 19 -29 11 -10
23 -31 26 -48 4 -16 9 -27 12 -24 3 3 0 20 -7 38 -6 18 -14 44 -16 58 -3 13
-8 27 -11 30 -3 3 -3 -5 0 -17 3 -13 1 -23 -4 -23 -5 0 -9 8 -9 19 0 10 -6 24
-14 30 -9 8 -12 24 -9 50 3 23 1 41 -6 45 -6 4 -11 12 -11 18 0 6 7 5 17 -3
14 -12 14 -8 -3 21 -24 42 -48 152 -39 183 5 18 4 19 -5 7 -9 -12 -10 -9 -6
15 5 23 4 26 -4 15 -9 -13 -11 -12 -9 5 2 33 0 45 -10 43 -5 -2 -17 6 -26 17
-9 11 -15 16 -13 10z m48 -50 c0 -3 -2 -5 -5 -5 -3 0 -5 2 -5 5 0 3 2 5 5 5 3
0 5 -2 5 -5z M3916 1977 c3 -10 9 -15 12 -12 3 3 0 11 -7 18 -10 9 -11 8 -5
-6z M2950 1955 c0 -3 2 -5 5 -5 3 0 5 2 5 5 0 3 -2 5 -5 5 -3 0 -5 -2 -5 -5z
M3950 1950 c0 -7 3 -10 7 -7 3 4 3 10 0 14 -4 3 -7 0 -7 -7z M3933 1922 c0
-12 5 -22 9 -22 11 0 10 12 -2 30 -7 12 -9 10 -7 -8z M2870 1925 c0 -3 2 -5 5
-5 3 0 5 2 5 5 0 3 -2 5 -5 5 -3 0 -5 -2 -5 -5z M2940 1925 c0 -3 2 -5 5 -5 3
0 5 2 5 5 0 3 -2 5 -5 5 -3 0 -5 -2 -5 -5z M3240 1925 c0 -3 2 -5 5 -5 3 0 5
2 5 5 0 3 -2 5 -5 5 -3 0 -5 -2 -5 -5z M2955 1900 c3 -5 8 -10 11 -10 2 0 4 5
4 10 0 6 -5 10 -11 10 -5 0 -7 -4 -4 -10z M3270 1905 c0 -3 2 -5 5 -5 3 0 5 2
5 5 0 3 -2 5 -5 5 -3 0 -5 -2 -5 -5z M3910 1905 c0 -3 2 -5 5 -5 3 0 5 2 5 5
0 3 -2 5 -5 5 -3 0 -5 -2 -5 -5z M2870 1895 c0 -3 2 -5 5 -5 3 0 5 2 5 5 0 3
-2 5 -5 5 -3 0 -5 -2 -5 -5z M3090 1896 c0 -2 7 -7 16 -10 8 -3 12 -2 9 4 -6
10 -25 14 -25 6z M3310 1895 c0 -3 2 -5 5 -5 3 0 5 2 5 5 0 3 -2 5 -5 5 -3 0
-5 -2 -5 -5z M3450 1895 c0 -3 2 -5 5 -5 3 0 5 2 5 5 0 3 -2 5 -5 5 -3 0 -5
-2 -5 -5z M3475 1890 c-3 -5 -1 -10 4 -10 6 0 11 5 11 10 0 6 -2 10 -4 10 -3
0 -8 -4 -11 -10z M3500 1895 c0 -3 2 -5 5 -5 3 0 5 2 5 5 0 3 -2 5 -5 5 -3 0
-5 -2 -5 -5z M3550 1895 c0 -3 2 -5 5 -5 3 0 5 2 5 5 0 3 -2 5 -5 5 -3 0 -5
-2 -5 -5z M3889 1870 c-7 -35 -4 -48 7 -38 3 4 4 21 2 40 l-3 33 -6 -35z
M3510 1880 c-9 -6 -10 -10 -3 -10 6 0 15 5 18 10 8 12 4 12 -15 0z M3643 1883
c4 -3 10 -3 14 0 3 4 0 7 -7 7 -7 0 -10 -3 -7 -7z M2870 1855 c0 -3 2 -5 5 -5
3 0 5 2 5 5 0 3 -2 5 -5 5 -3 0 -5 -2 -5 -5z M2840 1845 c0 -3 2 -5 5 -5 3 0
5 2 5 5 0 3 -2 5 -5 5 -3 0 -5 -2 -5 -5z M3990 1835 c0 -3 2 -5 5 -5 3 0 5 2
5 5 0 3 -2 5 -5 5 -3 0 -5 -2 -5 -5z M2830 1825 c0 -3 2 -5 5 -5 3 0 5 2 5 5
0 3 -2 5 -5 5 -3 0 -5 -2 -5 -5z M2850 1825 c0 -3 2 -5 5 -5 3 0 5 2 5 5 0 3
-2 5 -5 5 -3 0 -5 -2 -5 -5z M2870 1825 c0 -3 2 -5 5 -5 3 0 5 2 5 5 0 3 -2 5
-5 5 -3 0 -5 -2 -5 -5z M2950 1805 c0 -3 2 -5 5 -5 3 0 5 2 5 5 0 3 -2 5 -5 5
-3 0 -5 -2 -5 -5z M4011 1764 c0 -11 3 -14 6 -6 3 7 2 16 -1 19 -3 4 -6 -2 -5
-13z M3610 1735 c0 -3 2 -5 5 -5 3 0 5 2 5 5 0 3 -2 5 -5 5 -3 0 -5 -2 -5 -5z
M3990 1735 c0 -3 2 -5 5 -5 3 0 5 2 5 5 0 3 -2 5 -5 5 -3 0 -5 -2 -5 -5z
M4010 1735 c0 -3 2 -5 5 -5 3 0 5 2 5 5 0 3 -2 5 -5 5 -3 0 -5 -2 -5 -5z
M3590 1715 c0 -3 2 -5 5 -5 3 0 5 2 5 5 0 3 -2 5 -5 5 -3 0 -5 -2 -5 -5z
M3080 1700 c0 -5 -8 -7 -17 -4 -15 5 -15 3 1 -10 11 -9 16 -16 10 -16 -5 0 -9
-13 -9 -30 0 -38 15 -40 16 -2 0 15 2 37 5 50 2 12 2 22 -1 22 -3 0 -5 -4 -5
-10z M3320 1701 c0 -7 -5 -9 -12 -5 -7 4 -8 3 -4 -4 8 -13 -5 -16 -20 -4 -5 4
-3 0 3 -8 11 -12 15 -12 30 3 9 9 14 20 10 23 -4 4 -7 2 -7 -5z M3170 1693 c0
-19 14 -22 35 -7 10 8 14 14 8 14 -7 0 -15 -5 -19 -11 -4 -8 -9 -7 -15 2 -6
10 -9 10 -9 2z M3240 1695 c0 -3 2 -5 5 -5 3 0 5 2 5 5 0 3 -2 5 -5 5 -3 0 -5
-2 -5 -5z M3410 1695 c0 -3 2 -5 5 -5 3 0 5 2 5 5 0 3 -2 5 -5 5 -3 0 -5 -2
-5 -5z M3490 1695 c0 -3 2 -5 5 -5 3 0 5 2 5 5 0 3 -2 5 -5 5 -3 0 -5 -2 -5
-5z M3640 1690 c8 -5 20 -10 25 -10 6 0 3 5 -5 10 -8 5 -19 10 -25 10 -5 0 -3
-5 5 -10z M4000 1686 c0 -8 4 -17 9 -20 5 -4 7 3 4 14 -6 23 -13 26 -13 6z
M3390 1680 c0 -7 3 -10 7 -7 3 4 3 10 0 14 -4 3 -7 0 -7 -7z M3430 1685 c0 -3
2 -5 5 -5 3 0 5 2 5 5 0 3 -2 5 -5 5 -3 0 -5 -2 -5 -5z M3545 1680 c-3 -6 1
-7 9 -4 18 7 21 14 7 14 -6 0 -13 -4 -16 -10z M3125 1670 c3 -5 8 -10 11 -10
3 0 2 5 -1 10 -3 6 -8 10 -11 10 -3 0 -2 -4 1 -10z M3150 1675 c0 -3 2 -5 5
-5 3 0 5 2 5 5 0 3 -2 5 -5 5 -3 0 -5 -2 -5 -5z M3204 1668 c-4 -7 -3 -8 4 -4
7 4 12 9 12 12 0 8 -9 4 -16 -8z M3230 1675 c0 -3 2 -5 5 -5 3 0 5 2 5 5 0 3
-2 5 -5 5 -3 0 -5 -2 -5 -5z M3686 1672 c-3 -5 1 -9 9 -9 8 0 12 4 9 9 -3 4
-7 8 -9 8 -2 0 -6 -4 -9 -8z M3270 1665 c0 -3 2 -5 5 -5 3 0 5 2 5 5 0 3 -2 5
-5 5 -3 0 -5 -2 -5 -5z M3320 1665 c0 -3 2 -5 5 -5 3 0 5 2 5 5 0 3 -2 5 -5 5
-3 0 -5 -2 -5 -5z M3425 1660 c3 -5 8 -10 11 -10 3 0 2 5 -1 10 -3 6 -8 10
-11 10 -3 0 -2 -4 1 -10z M3460 1665 c0 -3 2 -5 5 -5 3 0 5 2 5 5 0 3 -2 5 -5
5 -3 0 -5 -2 -5 -5z M3490 1665 c0 -3 2 -5 5 -5 3 0 5 2 5 5 0 3 -2 5 -5 5 -3
0 -5 -2 -5 -5z M3560 1665 c0 -3 2 -5 5 -5 3 0 5 2 5 5 0 3 -2 5 -5 5 -3 0 -5
-2 -5 -5z M3640 1665 c0 -3 2 -5 5 -5 3 0 5 2 5 5 0 3 -2 5 -5 5 -3 0 -5 -2
-5 -5z M3903 1653 c4 -3 10 -3 14 0 3 4 0 7 -7 7 -7 0 -10 -3 -7 -7z M3761
1624 c0 -11 3 -14 6 -6 3 7 2 16 -1 19 -3 4 -6 -2 -5 -13z M3780 1635 c0 -3 2
-5 5 -5 3 0 5 2 5 5 0 3 -2 5 -5 5 -3 0 -5 -2 -5 -5z M4120 1613 c0 -17 5 -35
10 -38 13 -8 13 35 0 55 -7 11 -10 7 -10 -17z M2840 1625 c0 -3 2 -5 5 -5 3 0
5 2 5 5 0 3 -2 5 -5 5 -3 0 -5 -2 -5 -5z M3803 1623 c4 -3 10 -3 14 0 3 4 0 7
-7 7 -7 0 -10 -3 -7 -7z M3780 1600 c0 -7 3 -10 7 -7 3 4 3 10 0 14 -4 3 -7 0
-7 -7z M3900 1605 c0 -3 2 -5 5 -5 3 0 5 2 5 5 0 3 -2 5 -5 5 -3 0 -5 -2 -5
-5z M3080 1590 c0 -7 3 -10 7 -7 3 4 3 10 0 14 -4 3 -7 0 -7 -7z M3940 1590
c0 -7 3 -10 7 -7 3 4 3 10 0 14 -4 3 -7 0 -7 -7z M3280 1585 c0 -3 2 -5 5 -5
3 0 5 2 5 5 0 3 -2 5 -5 5 -3 0 -5 -2 -5 -5z M3440 1585 c0 -3 2 -5 5 -5 3 0
5 2 5 5 0 3 -2 5 -5 5 -3 0 -5 -2 -5 -5z M2933 1573 c4 -3 10 -3 14 0 3 4 0 7
-7 7 -7 0 -10 -3 -7 -7z M3770 1575 c0 -3 2 -5 5 -5 3 0 5 2 5 5 0 3 -2 5 -5
5 -3 0 -5 -2 -5 -5z M3983 1573 c4 -3 10 -3 14 0 3 4 0 7 -7 7 -7 0 -10 -3 -7
-7z M4000 1535 c0 -3 2 -5 5 -5 3 0 5 2 5 5 0 3 -2 5 -5 5 -3 0 -5 -2 -5 -5z
M2780 1525 c0 -3 2 -5 5 -5 3 0 5 2 5 5 0 3 -2 5 -5 5 -3 0 -5 -2 -5 -5z
M3070 1525 c0 -3 2 -5 5 -5 3 0 5 2 5 5 0 3 -2 5 -5 5 -3 0 -5 -2 -5 -5z
M3220 1525 c0 -3 2 -5 5 -5 3 0 5 2 5 5 0 3 -2 5 -5 5 -3 0 -5 -2 -5 -5z
M2880 1515 c0 -3 2 -5 5 -5 3 0 5 2 5 5 0 3 -2 5 -5 5 -3 0 -5 -2 -5 -5z
M4010 1515 c0 -3 2 -5 5 -5 3 0 5 2 5 5 0 3 -2 5 -5 5 -3 0 -5 -2 -5 -5z
M2770 1505 c0 -3 2 -5 5 -5 3 0 5 2 5 5 0 3 -2 5 -5 5 -3 0 -5 -2 -5 -5z
M2894 1498 c-4 -7 -3 -8 4 -4 12 7 16 16 8 16 -3 0 -8 -5 -12 -12z M3760 1505
c0 -3 2 -5 5 -5 3 0 5 2 5 5 0 3 -2 5 -5 5 -3 0 -5 -2 -5 -5z M3300 1495 c0
-3 2 -5 5 -5 3 0 5 2 5 5 0 3 -2 5 -5 5 -3 0 -5 -2 -5 -5z M3780 1495 c0 -3 2
-5 5 -5 3 0 5 2 5 5 0 3 -2 5 -5 5 -3 0 -5 -2 -5 -5z M2740 1485 c0 -3 2 -5 5
-5 3 0 5 2 5 5 0 3 -2 5 -5 5 -3 0 -5 -2 -5 -5z M2770 1475 c0 -3 2 -5 5 -5 3
0 5 2 5 5 0 3 -2 5 -5 5 -3 0 -5 -2 -5 -5z M3770 1475 c0 -3 2 -5 5 -5 3 0 5
2 5 5 0 3 -2 5 -5 5 -3 0 -5 -2 -5 -5z M2810 1460 c20 -13 43 -13 35 0 -3 6
-16 10 -28 10 -18 0 -19 -2 -7 -10z M2870 1460 c0 -7 3 -10 7 -7 3 4 3 10 0
14 -4 3 -7 0 -7 -7z M4030 1441 l-35 -7 48 -5 c27 -2 46 0 44 5 -4 13 -16 14
-57 7z M3220 1425 c0 -3 2 -5 5 -5 3 0 5 2 5 5 0 3 -2 5 -5 5 -3 0 -5 -2 -5
-5z M3770 1425 c0 -3 2 -5 5 -5 3 0 5 2 5 5 0 3 -2 5 -5 5 -3 0 -5 -2 -5 -5z
M2768 1413 c6 -2 18 -2 25 0 6 3 1 5 -13 5 -14 0 -19 -2 -12 -5z M3260 1415
c0 -3 2 -5 5 -5 3 0 5 2 5 5 0 3 -2 5 -5 5 -3 0 -5 -2 -5 -5z M4013 1403 c4
-3 10 -3 14 0 3 4 0 7 -7 7 -7 0 -10 -3 -7 -7z M2768 1393 c7 -3 16 -2 19 1 4
3 -2 6 -13 5 -11 0 -14 -3 -6 -6z M2800 1395 c0 -3 2 -5 5 -5 3 0 5 2 5 5 0 3
-2 5 -5 5 -3 0 -5 -2 -5 -5z M3350 1395 c0 -3 2 -5 5 -5 3 0 5 2 5 5 0 3 -2 5
-5 5 -3 0 -5 -2 -5 -5z M3987 1393 c-6 -14 -1 -73 8 -81 5 -4 5 -1 1 6 -4 6
-3 12 3 12 7 0 7 8 1 26 -6 14 -8 30 -4 35 3 5 3 9 0 9 -3 0 -7 -3 -9 -7z
M3250 1385 c0 -3 2 -5 5 -5 3 0 5 2 5 5 0 3 -2 5 -5 5 -3 0 -5 -2 -5 -5z
M2787 1367 c-4 -10 2 -13 19 -9 33 6 41 22 11 22 -14 0 -27 -6 -30 -13z M4010
1371 c0 -5 5 -13 10 -16 6 -3 10 -2 10 4 0 5 -4 13 -10 16 -5 3 -10 2 -10 -4z
M4040 1365 c0 -3 2 -5 5 -5 3 0 5 2 5 5 0 3 -2 5 -5 5 -3 0 -5 -2 -5 -5z
M2750 1355 c0 -3 2 -5 5 -5 3 0 5 2 5 5 0 3 -2 5 -5 5 -3 0 -5 -2 -5 -5z
M3225 1340 c-3 -5 -1 -10 4 -10 6 0 11 5 11 10 0 6 -2 10 -4 10 -3 0 -8 -4
-11 -10z M2780 1335 c0 -3 2 -5 5 -5 3 0 5 2 5 5 0 3 -2 5 -5 5 -3 0 -5 -2 -5
-5z M2870 1335 c0 -3 2 -5 5 -5 3 0 5 2 5 5 0 3 -2 5 -5 5 -3 0 -5 -2 -5 -5z
M3160 1330 c0 -7 3 -10 7 -7 3 4 3 10 0 14 -4 3 -7 0 -7 -7z M3192 1315 c0
-16 2 -22 5 -12 2 9 2 23 0 30 -3 6 -5 -1 -5 -18z M4023 1333 c4 -3 10 -3 14
0 3 4 0 7 -7 7 -7 0 -10 -3 -7 -7z M4010 1315 c0 -3 2 -5 5 -5 3 0 5 2 5 5 0
3 -2 5 -5 5 -3 0 -5 -2 -5 -5z M2800 1285 c0 -3 2 -5 5 -5 3 0 5 2 5 5 0 3 -2
5 -5 5 -3 0 -5 -2 -5 -5z M2780 1275 c0 -3 2 -5 5 -5 3 0 5 2 5 5 0 3 -2 5 -5
5 -3 0 -5 -2 -5 -5z M2873 1273 c4 -3 10 -3 14 0 3 4 0 7 -7 7 -7 0 -10 -3 -7
-7z M3160 1270 c0 -7 3 -10 7 -7 3 4 3 10 0 14 -4 3 -7 0 -7 -7z M2800 1255
c0 -3 2 -5 5 -5 3 0 5 2 5 5 0 3 -2 5 -5 5 -3 0 -5 -2 -5 -5z M3280 1255 c0
-3 2 -5 5 -5 3 0 5 2 5 5 0 3 -2 5 -5 5 -3 0 -5 -2 -5 -5z M3760 1255 c0 -3 2
-5 5 -5 3 0 5 2 5 5 0 3 -2 5 -5 5 -3 0 -5 -2 -5 -5z M3960 1230 c0 -7 3 -10
7 -7 3 4 3 10 0 14 -4 3 -7 0 -7 -7z M3990 1225 c0 -3 2 -5 5 -5 3 0 5 2 5 5
0 3 -2 5 -5 5 -3 0 -5 -2 -5 -5z M2870 1209 c0 -5 5 -7 10 -4 6 3 10 8 10 11
0 2 -4 4 -10 4 -5 0 -10 -5 -10 -11z M3051 1194 c0 -11 3 -14 6 -6 3 7 2 16
-1 19 -3 4 -6 -2 -5 -13z M4000 1205 c0 -3 2 -5 5 -5 3 0 5 2 5 5 0 3 -2 5 -5
5 -3 0 -5 -2 -5 -5z M2830 1185 c0 -3 2 -5 5 -5 3 0 5 2 5 5 0 3 -2 5 -5 5 -3
0 -5 -2 -5 -5z M3240 1185 c0 -3 2 -5 5 -5 3 0 5 2 5 5 0 3 -2 5 -5 5 -3 0 -5
-2 -5 -5z M3760 1175 c0 -3 2 -5 5 -5 3 0 5 2 5 5 0 3 -2 5 -5 5 -3 0 -5 -2
-5 -5z M2902 1050 c-37 -75 -40 -121 -12 -157 11 -14 20 -39 20 -55 0 -17 7
-45 16 -64 16 -33 16 -34 -15 -69 -17 -20 -31 -39 -32 -43 0 -4 -4 -54 -9
-112 -5 -58 -11 -118 -13 -135 -3 -16 -2 -21 0 -11 3 11 11 26 19 33 8 8 14
21 14 29 0 8 6 14 13 14 6 0 4 5 -6 11 -17 10 -12 14 35 36 29 14 68 39 85 56
18 17 36 28 39 24 9 -9 44 11 44 26 0 7 11 22 24 35 30 28 73 29 152 2 66 -22
88 -25 79 -10 -3 6 -14 10 -24 10 -10 0 -24 6 -30 14 -13 16 -6 15 82 -10 26
-7 47 -9 47 -4 0 21 -50 32 -159 36 -119 4 -185 11 -211 22 -19 8 -29 9 -60
11 -20 1 -22 3 -10 12 13 9 13 10 0 8 -8 -1 -20 -1 -26 0 -16 1 -33 48 -36 98
-2 22 -6 39 -9 37 -4 -2 -12 10 -19 26 -15 37 -6 94 21 121 11 11 14 19 7 19
-10 0 -10 3 0 9 8 5 12 17 10 27 -3 14 -14 0 -36 -46z m97 -324 c15 -8 51 -18
79 -22 l51 -6 -55 -52 c-30 -29 -84 -69 -119 -89 l-66 -36 3 49 c2 26 7 46 12
43 5 -4 6 9 2 29 -6 33 11 67 26 52 3 -3 8 7 12 21 7 29 16 31 55 11z m271
-31 c0 -3 -2 -5 -5 -5 -3 0 -5 2 -5 5 0 3 2 5 5 5 3 0 5 -2 5 -5z m-390 -240
c0 -3 -2 -5 -5 -5 -3 0 -5 2 -5 5 0 3 2 5 5 5 3 0 5 -2 5 -5z M2932 641 c-16
-50 -26 -91 -21 -91 11 0 69 76 64 84 -3 3 -2 4 1 1 4 -2 18 5 32 15 13 11 32
20 41 20 9 0 23 5 31 10 11 8 6 9 -20 6 -51 -5 -86 -22 -104 -48 -20 -28 -20
-23 0 36 9 26 14 49 11 52 -3 3 -18 -35 -35 -85z M3000 699 c0 -5 5 -7 10 -4
6 3 10 8 10 11 0 2 -4 4 -10 4 -5 0 -10 -5 -10 -11z M2917 683 c-4 -3 -7 -13
-7 -22 1 -13 3 -13 11 2 11 19 8 33 -4 20z M3004 628 c-4 -7 -3 -8 4 -4 7 4
12 9 12 12 0 8 -9 4 -16 -8z M3110 1105 c0 -3 2 -5 5 -5 3 0 5 2 5 5 0 3 -2 5
-5 5 -3 0 -5 -2 -5 -5z M2930 1030 c0 -7 3 -10 7 -7 3 4 3 10 0 14 -4 3 -7 0
-7 -7z M3140 1025 c0 -3 2 -5 5 -5 3 0 5 2 5 5 0 3 -2 5 -5 5 -3 0 -5 -2 -5
-5z M3510 1015 c0 -3 2 -5 5 -5 3 0 5 2 5 5 0 3 -2 5 -5 5 -3 0 -5 -2 -5 -5z
M2920 1005 c0 -3 2 -5 5 -5 3 0 5 2 5 5 0 3 -2 5 -5 5 -3 0 -5 -2 -5 -5z
M3790 975 c0 -3 2 -5 5 -5 3 0 5 2 5 5 0 3 -2 5 -5 5 -3 0 -5 -2 -5 -5z M2960
945 c0 -3 2 -5 5 -5 3 0 5 2 5 5 0 3 -2 5 -5 5 -3 0 -5 -2 -5 -5z M3773 933
c4 -3 10 -3 14 0 3 4 0 7 -7 7 -7 0 -10 -3 -7 -7z M2920 925 c0 -3 2 -5 5 -5
3 0 5 2 5 5 0 3 -2 5 -5 5 -3 0 -5 -2 -5 -5z M2950 925 c0 -3 2 -5 5 -5 3 0 5
2 5 5 0 3 -2 5 -5 5 -3 0 -5 -2 -5 -5z M3000 900 c0 -7 3 -10 7 -7 3 4 3 10 0
14 -4 3 -7 0 -7 -7z M2950 885 c0 -3 2 -5 5 -5 3 0 5 2 5 5 0 3 -2 5 -5 5 -3
0 -5 -2 -5 -5z M3770 870 c0 -5 5 -10 11 -10 5 0 7 5 4 10 -3 6 -8 10 -11 10
-2 0 -4 -4 -4 -10z M3605 849 c-4 -6 -5 -12 -2 -15 2 -3 7 2 10 11 7 17 1 20
-8 4z M3270 845 c0 -3 2 -5 5 -5 3 0 5 2 5 5 0 3 -2 5 -5 5 -3 0 -5 -2 -5 -5z
M3630 847 c0 -1 -4 -16 -9 -33 -6 -21 -5 -31 3 -31 6 0 11 15 12 34 0 18 -1
33 -3 33 -2 0 -3 -1 -3 -3z M3350 825 c0 -3 2 -5 5 -5 3 0 5 2 5 5 0 3 -2 5
-5 5 -3 0 -5 -2 -5 -5z M3040 815 c0 -3 2 -5 5 -5 3 0 5 2 5 5 0 3 -2 5 -5 5
-3 0 -5 -2 -5 -5z M3110 810 c0 -7 3 -10 7 -7 3 4 3 10 0 14 -4 3 -7 0 -7 -7z
M3283 803 c4 -3 10 -3 14 0 3 4 0 7 -7 7 -7 0 -10 -3 -7 -7z M3200 779 c0 -5
5 -7 10 -4 6 3 10 8 10 11 0 2 -4 4 -10 4 -5 0 -10 -5 -10 -11z M3694 759 c-1
-32 9 -28 21 9 4 15 2 22 -7 22 -8 0 -13 -13 -14 -31z M2970 775 c0 -3 2 -5 5
-5 3 0 5 2 5 5 0 3 -2 5 -5 5 -3 0 -5 -2 -5 -5z M3030 768 c0 -15 8 -18 48
-16 47 1 47 1 7 5 -22 3 -43 10 -47 16 -5 8 -8 6 -8 -5z M3083 773 c4 -3 10
-3 14 0 3 4 0 7 -7 7 -7 0 -10 -3 -7 -7z M3133 773 c4 -3 10 -3 14 0 3 4 0 7
-7 7 -7 0 -10 -3 -7 -7z M3160 771 c0 -17 18 -21 24 -6 3 9 0 15 -9 15 -8 0
-15 -4 -15 -9z M3510 775 c0 -3 2 -5 5 -5 3 0 5 2 5 5 0 3 -2 5 -5 5 -3 0 -5
-2 -5 -5z M3550 775 c0 -3 2 -5 5 -5 3 0 5 2 5 5 0 3 -2 5 -5 5 -3 0 -5 -2 -5
-5z M3590 775 c0 -3 2 -5 5 -5 3 0 5 2 5 5 0 3 -2 5 -5 5 -3 0 -5 -2 -5 -5z
M3010 755 c0 -3 2 -5 5 -5 3 0 5 2 5 5 0 3 -2 5 -5 5 -3 0 -5 -2 -5 -5z M3603
753 c4 -3 10 -3 14 0 3 4 0 7 -7 7 -7 0 -10 -3 -7 -7z M3135 740 c3 -5 8 -10
11 -10 2 0 4 5 4 10 0 6 -5 10 -11 10 -5 0 -7 -4 -4 -10z M3083 733 c4 -3 10
-3 14 0 3 4 0 7 -7 7 -7 0 -10 -3 -7 -7z M3600 678 c0 -4 4 -8 9 -8 6 0 12 4
15 8 3 5 -1 9 -9 9 -8 0 -15 -4 -15 -9z M3163 673 c4 -3 10 -3 14 0 3 4 0 7
-7 7 -7 0 -10 -3 -7 -7z M3205 670 c11 -5 27 -9 35 -9 9 0 8 4 -5 9 -11 5 -27
9 -35 9 -9 0 -8 -4 5 -9z M3156 646 c3 -8 1 -17 -5 -21 -6 -3 -11 0 -12 7 0 7
-4 3 -9 -9 -10 -24 -2 -65 11 -57 5 3 10 -3 10 -13 2 -22 18 53 18 85 1 12 -3
22 -9 22 -5 0 -7 -6 -4 -14z m-9 -58 c-3 -8 -6 -5 -6 6 -1 11 2 17 5 13 3 -3
4 -12 1 -19z M3375 652 c-11 -12 -4 -24 11 -18 9 4 23 1 30 -5 11 -9 14 -8 14
4 0 14 -44 30 -55 19z M3110 645 c0 -3 2 -5 5 -5 3 0 5 2 5 5 0 3 -2 5 -5 5
-3 0 -5 -2 -5 -5z M3193 610 c-17 -67 -26 -141 -13 -112 5 13 14 20 20 17 6
-4 9 -9 6 -13 -2 -4 0 -27 4 -52 l7 -45 1 60 c0 33 -3 89 -7 125 l-6 65 -12
-45z M3230 624 c0 -8 5 -12 10 -9 6 3 10 10 10 16 0 5 -4 9 -10 9 -5 0 -10 -7
-10 -16z M3292 623 c-15 -29 -54 -211 -49 -230 3 -13 6 -9 11 12 4 17 11 38
16 47 6 10 7 25 4 35 -3 10 1 8 9 -5 13 -22 14 -21 15 25 0 26 3 67 6 91 6 45
2 53 -12 25z m-5 -105 c-3 -8 -6 -5 -6 6 -1 11 2 17 5 13 3 -3 4 -12 1 -19z
M3351 615 c0 -11 6 -31 14 -45 l13 -25 7 28 c4 16 3 33 -2 38 -7 7 -9 2 -6
-15 7 -37 -5 -32 -16 7 -5 19 -9 24 -10 12z M3320 615 c0 -3 2 -5 5 -5 3 0 5
2 5 5 0 3 -2 5 -5 5 -3 0 -5 -2 -5 -5z M3430 595 c0 -3 2 -5 5 -5 3 0 5 2 5 5
0 3 -2 5 -5 5 -3 0 -5 -2 -5 -5z M3065 580 c3 -5 8 -10 11 -10 2 0 4 5 4 10 0
6 -5 10 -11 10 -5 0 -7 -4 -4 -10z M3240 580 c0 -7 3 -10 7 -7 3 4 3 10 0 14
-4 3 -7 0 -7 -7z M3670 585 c0 -3 2 -5 5 -5 3 0 5 2 5 5 0 3 -2 5 -5 5 -3 0
-5 -2 -5 -5z M3412 560 c0 -14 2 -19 5 -12 2 6 2 18 0 25 -3 6 -5 1 -5 -13z
M3540 575 c0 -3 2 -5 5 -5 3 0 5 2 5 5 0 3 -2 5 -5 5 -3 0 -5 -2 -5 -5z M3690
575 c0 -3 2 -5 5 -5 3 0 5 2 5 5 0 3 -2 5 -5 5 -3 0 -5 -2 -5 -5z M3020 555
c0 -3 2 -5 5 -5 3 0 5 2 5 5 0 3 -2 5 -5 5 -3 0 -5 -2 -5 -5z M3085 540 c3 -5
8 -10 11 -10 3 0 2 5 -1 10 -3 6 -8 10 -11 10 -3 0 -2 -4 1 -10z M3330 545 c0
-3 2 -5 5 -5 3 0 5 2 5 5 0 3 -2 5 -5 5 -3 0 -5 -2 -5 -5z M3700 545 c0 -3 2
-5 5 -5 3 0 5 2 5 5 0 3 -2 5 -5 5 -3 0 -5 -2 -5 -5z M3720 545 c0 -3 2 -5 5
-5 3 0 5 2 5 5 0 3 -2 5 -5 5 -3 0 -5 -2 -5 -5z M3010 530 c0 -5 7 -7 15 -4 8
4 15 8 15 10 0 2 -7 4 -15 4 -8 0 -15 -4 -15 -10z M3350 535 c0 -3 2 -5 5 -5
3 0 5 2 5 5 0 3 -2 5 -5 5 -3 0 -5 -2 -5 -5z M3470 530 c0 -7 3 -10 7 -7 3 4
3 10 0 14 -4 3 -7 0 -7 -7z M3590 530 c0 -7 3 -10 7 -7 3 4 3 10 0 14 -4 3 -7
0 -7 -7z M3070 510 c0 -7 3 -10 7 -7 3 4 3 10 0 14 -4 3 -7 0 -7 -7z M3110
515 c0 -3 2 -5 5 -5 3 0 5 2 5 5 0 3 -2 5 -5 5 -3 0 -5 -2 -5 -5z M2940 505
c0 -3 2 -5 5 -5 3 0 5 2 5 5 0 3 -2 5 -5 5 -3 0 -5 -2 -5 -5z M3325 480 c-4
-16 -5 -42 -4 -57 2 -16 0 -34 -4 -40 -5 -8 -3 -11 5 -8 8 3 13 22 13 48 0 23
4 52 8 65 5 13 4 22 -2 22 -5 0 -12 -13 -16 -30z M2954 488 c-4 -7 -3 -8 4 -4
7 4 12 9 12 12 0 8 -9 4 -16 -8z M2920 475 c0 -3 2 -5 5 -5 3 0 5 2 5 5 0 3
-2 5 -5 5 -3 0 -5 -2 -5 -5z M3003 473 c4 -3 10 -3 14 0 3 4 0 7 -7 7 -7 0
-10 -3 -7 -7z M3055 440 c-13 -30 -15 -44 -7 -52 6 -6 7 -17 2 -27 -5 -9 -20
-61 -34 -117 -13 -56 -31 -116 -39 -135 -8 -19 -13 -36 -13 -39 1 -3 -9 -16
-21 -30 -27 -29 -29 -43 -5 -38 9 2 16 12 16 22 -1 9 1 15 4 12 6 -7 42 70 42
90 0 8 4 14 10 14 5 0 6 7 3 17 -5 11 -3 14 6 8 10 -6 11 -2 6 15 -5 15 -4 20
4 16 8 -5 9 4 5 28 -3 24 -1 36 7 36 7 0 9 10 7 25 -3 13 -1 26 3 27 5 2 11
32 13 68 2 36 7 73 11 83 14 34 -2 16 -20 -23z M3180 465 c0 -3 2 -5 5 -5 3 0
5 2 5 5 0 3 -2 5 -5 5 -3 0 -5 -2 -5 -5z M3360 455 c0 -3 2 -5 5 -5 3 0 5 2 5
5 0 3 -2 5 -5 5 -3 0 -5 -2 -5 -5z M3690 455 c0 -3 2 -5 5 -5 3 0 5 2 5 5 0 3
-2 5 -5 5 -3 0 -5 -2 -5 -5z M3270 440 c0 -7 3 -10 7 -7 3 4 3 10 0 14 -4 3
-7 0 -7 -7z M3190 415 c0 -3 2 -5 5 -5 3 0 5 2 5 5 0 3 -2 5 -5 5 -3 0 -5 -2
-5 -5z M3270 396 c0 -8 4 -17 9 -20 5 -4 7 3 4 14 -6 23 -13 26 -13 6z M3590
400 c0 -7 3 -10 7 -7 3 4 3 10 0 14 -4 3 -7 0 -7 -7z M2872 360 c0 -14 2 -19
5 -12 2 6 2 18 0 25 -3 6 -5 1 -5 -13z M3583 373 c4 -3 10 -3 14 0 3 4 0 7 -7
7 -7 0 -10 -3 -7 -7z M2841 185 c2 -167 3 -185 19 -185 10 0 26 19 41 52 13
29 34 62 46 74 23 23 47 94 41 122 -2 9 -15 -16 -28 -57 -15 -47 -26 -68 -30
-57 -5 15 -7 15 -20 -2 -25 -31 -41 -62 -36 -71 3 -4 -1 -8 -9 -8 -9 0 -13 14
-13 46 0 25 3 40 6 32 3 -11 42 68 42 87 0 12 -23 -15 -35 -41 -14 -31 -14
-30 -9 33 7 98 8 100 17 100 4 0 5 5 2 10 -4 6 -11 7 -17 4 -7 -5 -9 2 -6 20
3 14 1 26 -3 26 -5 0 -8 -83 -8 -185z M3700 355 c0 -3 2 -5 5 -5 3 0 5 2 5 5
0 3 -2 5 -5 5 -3 0 -5 -2 -5 -5z M3310 323 c0 -62 -19 -101 -52 -108 -17 -4
-26 -10 -21 -14 15 -9 -5 -73 -20 -64 -8 5 -8 2 1 -9 7 -9 9 -18 5 -20 -24
-10 -56 -108 -35 -108 9 0 57 104 75 163 21 66 30 45 42 -91 8 -80 16 -90 32
-37 6 19 7 35 2 35 -4 0 -8 12 -9 28 -1 99 -4 121 -16 111 -9 -8 -10 -1 -3 32
15 64 17 99 8 105 -5 3 -9 -7 -9 -23z M3582 320 c0 -14 2 -19 5 -12 2 6 2 18
0 25 -3 6 -5 1 -5 -13z M3260 305 c0 -3 2 -5 5 -5 3 0 5 2 5 5 0 3 -2 5 -5 5
-3 0 -5 -2 -5 -5z M3680 305 c0 -3 2 -5 5 -5 3 0 5 2 5 5 0 3 -2 5 -5 5 -3 0
-5 -2 -5 -5z M2877 254 c-4 -4 -7 -14 -7 -23 0 -11 3 -12 11 -4 6 6 10 16 7
23 -2 6 -7 8 -11 4z M2950 255 c0 -3 2 -5 5 -5 3 0 5 2 5 5 0 3 -2 5 -5 5 -3
0 -5 -2 -5 -5z M2926 209 c-19 -39 -20 -40 -2 -33 14 5 31 52 23 61 -3 2 -12
-10 -21 -28z M3349 228 c-4 -10 -5 -67 -1 -63 6 6 11 65 5 65 -2 0 -4 -1 -4
-2z M3610 209 c0 -5 5 -7 10 -4 6 3 10 8 10 11 0 2 -4 4 -10 4 -5 0 -10 -5
-10 -11z M3670 215 c0 -3 2 -5 5 -5 3 0 5 2 5 5 0 3 -2 5 -5 5 -3 0 -5 -2 -5
-5z M3215 190 c3 -5 8 -10 11 -10 3 0 2 5 -1 10 -3 6 -8 10 -11 10 -3 0 -2 -4
1 -10z M3336 138 c3 -5 10 -6 15 -3 13 9 11 12 -6 12 -8 0 -12 -4 -9 -9z
M3605 130 c3 -5 8 -10 11 -10 3 0 2 5 -1 10 -3 6 -8 10 -11 10 -3 0 -2 -4 1
-10z M3350 100 c0 -7 3 -10 7 -7 3 4 3 10 0 14 -4 3 -7 0 -7 -7z M3030 55 c0
-3 2 -5 5 -5 3 0 5 2 5 5 0 3 -2 5 -5 5 -3 0 -5 -2 -5 -5z M3130 40 c0 -7 3
-10 7 -7 3 4 3 10 0 14 -4 3 -7 0 -7 -7z M3430 30 c0 -7 3 -10 7 -7 3 4 3 10
0 14 -4 3 -7 0 -7 -7z M3000 15 c-7 -9 -8 -15 -2 -15 5 0 12 7 16 15 7 19 2
19 -14 0z M3470 5 c0 -3 2 -5 5 -5 3 0 5 2 5 5 0 3 -2 5 -5 5 -3 0 -5 -2 -5
-5z"/>
</g>
</svg>
